<mxfile host="65bd71144e">
    <diagram id="WkNOwfUVE89JhKYkcai5" name="Page-1">
        <mxGraphModel dx="1192" dy="159" grid="1" gridSize="10" guides="1" tooltips="1" connect="1" arrows="1" fold="1" page="1" pageScale="1" pageWidth="850" pageHeight="1100" math="0" shadow="0">
            <root>
                <mxCell id="0"/>
                <mxCell id="1" parent="0"/>
                <mxCell id="5" value="" style="edgeStyle=none;orthogonalLoop=1;jettySize=auto;html=1;" edge="1" parent="1">
                    <mxGeometry width="80" relative="1" as="geometry">
                        <mxPoint x="420" y="590" as="sourcePoint"/>
                        <mxPoint x="500" y="590" as="targetPoint"/>
                        <Array as="points"/>
                    </mxGeometry>
                </mxCell>
                <mxCell id="6" value="" style="curved=1;endArrow=classic;html=1;" edge="1" parent="1">
                    <mxGeometry width="50" height="50" relative="1" as="geometry">
                        <mxPoint x="400" y="620" as="sourcePoint"/>
                        <mxPoint x="450" y="570" as="targetPoint"/>
                        <Array as="points">
                            <mxPoint x="450" y="620"/>
                            <mxPoint x="400" y="570"/>
                        </Array>
                    </mxGeometry>
                </mxCell>
                <mxCell id="20" value="graph TD;&#xa;    A[Docker Mastery Series] --&gt; B[What is Containerization?];&#xa;    A --&gt; C[Why Docker Matters];&#xa;    A --&gt; D[Docker vs Traditional Deployment];&#xa;    A --&gt; E[Hands-On Demo];&#xa;    E --&gt; F[Create Flask App];&#xa;    E --&gt; G[Create requirements.txt];&#xa;    E --&gt; H[Write Dockerfile];&#xa;    E --&gt; I[Build &amp; Run];&#xa;    I --&gt; J[Test in Browser];&#xa;    J --&gt; K[Key Takeaways];&#xa;    K --&gt; L[Next Video Preview];" style="shadow=0;dashed=0;align=left;strokeWidth=1;shape=mxgraph.mermaid.abstract.mermaid;labelBackgroundColor=#ffffff;noLabel=1;theme=default;" vertex="1" parent="1">
                    <mxGeometry x="150" y="320" width="330" height="240" as="geometry"/>
                </mxCell>
                <mxCell id="21" value="sequenceDiagram&#xa;    participant Alice&#xa;    participant Bob&#xa;    Alice-&gt;&gt;John: Hello John, how are you?&#xa;    loop Healthcheck&#xa;        John-&gt;&gt;John: Fight against hypochondria&#xa;    end&#xa;    Note right of John: Rational thoughts &lt;br/&gt;prevail!&#xa;    John--&gt;&gt;Alice: Great!&#xa;    John-&gt;&gt;Bob: How about you?&#xa;    Bob--&gt;&gt;John: Jolly good!" style="shadow=0;dashed=0;align=left;strokeWidth=1;shape=mxgraph.mermaid.abstract.mermaid;labelBackgroundColor=#ffffff;noLabel=1;theme=default;" vertex="1" parent="1">
                    <mxGeometry x="-400" y="330" width="400" height="300" as="geometry"/>
                </mxCell>
            </root>
        </mxGraphModel>
    </diagram>
</mxfile>